<?xml version="1.0" encoding="UTF-8" standalone="no"?>
<!DOCTYPE svg PUBLIC "-//W3C//DTD SVG 1.1//EN"
 "http://www.w3.org/Graphics/SVG/1.1/DTD/svg11.dtd">
<!-- Generated by graphviz version 2.43.0 (0)
 -->
<!-- Title: %3 Pages: 1 -->
<svg width="1108pt" height="188pt"
 viewBox="0.00 0.00 1108.04 188.00" xmlns="http://www.w3.org/2000/svg" xmlns:xlink="http://www.w3.org/1999/xlink">
<g id="graph0" class="graph" transform="scale(1 1) rotate(0) translate(4 184)">
<title>%3</title>
<polygon fill="white" stroke="transparent" points="-4,4 -4,-184 1104.04,-184 1104.04,4 -4,4"/>
<!-- SRC -->
<g id="node1" class="node">
<title>SRC</title>
<ellipse fill="lightgray" stroke="black" cx="619.75" cy="-90" rx="30.59" ry="18"/>
<text text-anchor="middle" x="619.75" y="-86.3" font-family="Times,serif" font-size="14.00">SRC</text>
</g>
<!-- PTK2 -->
<g id="node2" class="node">
<title>PTK2</title>
<ellipse fill="none" stroke="black" cx="35.75" cy="-18" rx="36" ry="18"/>
<text text-anchor="middle" x="35.75" y="-14.3" font-family="Times,serif" font-size="14.00">PTK2</text>
</g>
<!-- SRC&#45;&gt;PTK2 -->
<g id="edge1" class="edge">
<title>SRC&#45;&gt;PTK2</title>
<path fill="none" stroke="green" d="M589.2,-88.79C506.28,-87.63 270.5,-80.35 80.75,-36 77.75,-35.3 74.69,-34.45 71.64,-33.51"/>
<polygon fill="green" stroke="green" points="72.63,-30.15 62.04,-30.25 70.38,-36.78 72.63,-30.15"/>
</g>
<!-- CDH2 -->
<g id="node4" class="node">
<title>CDH2</title>
<ellipse fill="none" stroke="black" cx="127.75" cy="-18" rx="38.19" ry="18"/>
<text text-anchor="middle" x="127.75" y="-14.3" font-family="Times,serif" font-size="14.00">CDH2</text>
</g>
<!-- SRC&#45;&gt;CDH2 -->
<g id="edge3" class="edge">
<title>SRC&#45;&gt;CDH2</title>
<path fill="none" stroke="red" d="M589.2,-87.68C516.61,-84.05 328.45,-71.69 175.75,-36 170.9,-34.87 165.87,-33.41 160.97,-31.83"/>
<polygon fill="red" stroke="red" points="155.49,-35.27 158.65,-25.79 160.55,-26.42 157.38,-35.91 155.49,-35.27"/>
<polyline fill="none" stroke="red" points="156.12,-30.21 160.86,-31.8 "/>
</g>
<!-- PTK2B -->
<g id="node5" class="node">
<title>PTK2B</title>
<ellipse fill="none" stroke="black" cx="226.75" cy="-18" rx="42.49" ry="18"/>
<text text-anchor="middle" x="226.75" y="-14.3" font-family="Times,serif" font-size="14.00">PTK2B</text>
</g>
<!-- SRC&#45;&gt;PTK2B -->
<g id="edge4" class="edge">
<title>SRC&#45;&gt;PTK2B</title>
<path fill="none" stroke="green" d="M589.78,-85.99C530.04,-79.63 392.07,-63.14 278.75,-36 275.16,-35.14 271.47,-34.15 267.79,-33.09"/>
<polygon fill="green" stroke="green" points="268.72,-29.72 258.14,-30.17 266.69,-36.42 268.72,-29.72"/>
</g>
<!-- STAT3 -->
<g id="node7" class="node">
<title>STAT3</title>
<ellipse fill="none" stroke="black" cx="327.75" cy="-18" rx="40.09" ry="18"/>
<text text-anchor="middle" x="327.75" y="-14.3" font-family="Times,serif" font-size="14.00">STAT3</text>
</g>
<!-- SRC&#45;&gt;STAT3 -->
<g id="edge6" class="edge">
<title>SRC&#45;&gt;STAT3</title>
<path fill="none" stroke="green" d="M590.67,-83.82C544.8,-75.39 453.02,-57.47 376.75,-36 373.77,-35.16 370.7,-34.24 367.63,-33.28"/>
<polygon fill="green" stroke="green" points="368.48,-29.87 357.89,-30.09 366.3,-36.52 368.48,-29.87"/>
</g>
<!-- RPS6KA3 -->
<g id="node10" class="node">
<title>RPS6KA3</title>
<ellipse fill="none" stroke="black" cx="440.75" cy="-18" rx="54.69" ry="18"/>
<text text-anchor="middle" x="440.75" y="-14.3" font-family="Times,serif" font-size="14.00">RPS6KA3</text>
</g>
<!-- SRC&#45;&gt;RPS6KA3 -->
<g id="edge9" class="edge">
<title>SRC&#45;&gt;RPS6KA3</title>
<path fill="none" stroke="green" d="M594.86,-79.27C566.23,-68.07 518.73,-49.49 484.01,-35.92"/>
<polygon fill="green" stroke="green" points="485.17,-32.62 474.59,-32.23 482.62,-39.14 485.17,-32.62"/>
</g>
<!-- CTNNB1 -->
<g id="node12" class="node">
<title>CTNNB1</title>
<ellipse fill="none" stroke="black" cx="565.75" cy="-18" rx="51.99" ry="18"/>
<text text-anchor="middle" x="565.75" y="-14.3" font-family="Times,serif" font-size="14.00">CTNNB1</text>
</g>
<!-- SRC&#45;&gt;CTNNB1 -->
<g id="edge11" class="edge">
<title>SRC&#45;&gt;CTNNB1</title>
<path fill="none" stroke="purple" d="M607.49,-73.12C601.19,-64.94 593.33,-54.76 586.14,-45.44"/>
<polygon fill="purple" stroke="purple" points="586.03,-45.3 579.2,-42.99 578.7,-35.8 585.54,-38.1 586.03,-45.3"/>
</g>
<!-- RHOA -->
<g id="node16" class="node">
<title>RHOA</title>
<ellipse fill="none" stroke="black" cx="674.75" cy="-18" rx="38.99" ry="18"/>
<text text-anchor="middle" x="674.75" y="-14.3" font-family="Times,serif" font-size="14.00">RHOA</text>
</g>
<!-- SRC&#45;&gt;RHOA -->
<g id="edge15" class="edge">
<title>SRC&#45;&gt;RHOA</title>
<path fill="none" stroke="purple" d="M631.95,-73.46C638.53,-65.09 646.82,-54.55 654.34,-44.97"/>
<polygon fill="purple" stroke="purple" points="654.39,-44.9 654.96,-37.71 661.81,-35.47 661.25,-42.66 654.39,-44.9"/>
</g>
<!-- RAC1 -->
<g id="node17" class="node">
<title>RAC1</title>
<ellipse fill="none" stroke="black" cx="767.75" cy="-18" rx="36.29" ry="18"/>
<text text-anchor="middle" x="767.75" y="-14.3" font-family="Times,serif" font-size="14.00">RAC1</text>
</g>
<!-- SRC&#45;&gt;RAC1 -->
<g id="edge16" class="edge">
<title>SRC&#45;&gt;RAC1</title>
<path fill="none" stroke="green" d="M642.87,-78.06C667.02,-66.64 705.17,-48.6 732.95,-35.46"/>
<polygon fill="green" stroke="green" points="734.76,-38.47 742.3,-31.03 731.77,-32.15 734.76,-38.47"/>
</g>
<!-- ABL1 -->
<g id="node18" class="node">
<title>ABL1</title>
<ellipse fill="none" stroke="black" cx="857.75" cy="-18" rx="36" ry="18"/>
<text text-anchor="middle" x="857.75" y="-14.3" font-family="Times,serif" font-size="14.00">ABL1</text>
</g>
<!-- SRC&#45;&gt;ABL1 -->
<g id="edge17" class="edge">
<title>SRC&#45;&gt;ABL1</title>
<path fill="none" stroke="green" d="M647.47,-82.25C685.18,-72.88 754.59,-54.92 812.75,-36 815.34,-35.16 818,-34.25 820.67,-33.32"/>
<polygon fill="green" stroke="green" points="822.07,-36.53 830.28,-29.84 819.69,-29.95 822.07,-36.53"/>
</g>
<!-- HNF4A -->
<g id="node19" class="node">
<title>HNF4A</title>
<ellipse fill="none" stroke="black" cx="956.75" cy="-18" rx="44.69" ry="18"/>
<text text-anchor="middle" x="956.75" y="-14.3" font-family="Times,serif" font-size="14.00">HNF4A</text>
</g>
<!-- SRC&#45;&gt;HNF4A -->
<g id="edge18" class="edge">
<title>SRC&#45;&gt;HNF4A</title>
<path fill="none" stroke="red" d="M648.71,-83.88C699.1,-75.64 805.25,-58.13 893.75,-36 900.64,-34.28 907.95,-32.17 915.09,-30.03"/>
<polygon fill="red" stroke="red" points="917.6,-24.06 920.49,-33.63 918.57,-34.21 915.69,-24.63 917.6,-24.06"/>
<polyline fill="none" stroke="red" points="920,-28.56 915.21,-30 "/>
</g>
<!-- ITGB1 -->
<g id="node20" class="node">
<title>ITGB1</title>
<ellipse fill="none" stroke="black" cx="1059.75" cy="-18" rx="40.09" ry="18"/>
<text text-anchor="middle" x="1059.75" y="-14.3" font-family="Times,serif" font-size="14.00">ITGB1</text>
</g>
<!-- SRC&#45;&gt;ITGB1 -->
<g id="edge20" class="edge">
<title>SRC&#45;&gt;ITGB1</title>
<path fill="none" stroke="green" d="M650.05,-86.96C716.25,-82.05 878.49,-67.57 1010.75,-36 1013.94,-35.24 1017.22,-34.35 1020.5,-33.38"/>
<polygon fill="green" stroke="green" points="1021.75,-36.65 1030.23,-30.3 1019.64,-29.98 1021.75,-36.65"/>
</g>
<!-- CDH1 -->
<g id="node3" class="node">
<title>CDH1</title>
<ellipse fill="none" stroke="black" cx="272.75" cy="-162" rx="38.19" ry="18"/>
<text text-anchor="middle" x="272.75" y="-158.3" font-family="Times,serif" font-size="14.00">CDH1</text>
</g>
<!-- CDH1&#45;&gt;SRC -->
<g id="edge2" class="edge">
<title>CDH1&#45;&gt;SRC</title>
<path fill="none" stroke="green" d="M301.44,-149.97C307.74,-147.79 314.42,-145.67 320.75,-144 412.16,-119.89 522.23,-103.55 579.96,-95.92"/>
<polygon fill="green" stroke="green" points="580.65,-99.36 590.11,-94.6 579.74,-92.42 580.65,-99.36"/>
</g>
<!-- ERBB2 -->
<g id="node6" class="node">
<title>ERBB2</title>
<ellipse fill="none" stroke="black" cx="373.75" cy="-162" rx="44.39" ry="18"/>
<text text-anchor="middle" x="373.75" y="-158.3" font-family="Times,serif" font-size="14.00">ERBB2</text>
</g>
<!-- ERBB2&#45;&gt;SRC -->
<g id="edge5" class="edge">
<title>ERBB2&#45;&gt;SRC</title>
<path fill="none" stroke="green" d="M407.04,-150.08C413.56,-148.01 420.36,-145.9 426.75,-144 480.55,-127.99 543.32,-111.08 582.3,-100.78"/>
<polygon fill="green" stroke="green" points="583.38,-104.12 592.16,-98.18 581.59,-97.35 583.38,-104.12"/>
</g>
<!-- PRKCA -->
<g id="node8" class="node">
<title>PRKCA</title>
<ellipse fill="none" stroke="black" cx="479.75" cy="-162" rx="43.59" ry="18"/>
<text text-anchor="middle" x="479.75" y="-158.3" font-family="Times,serif" font-size="14.00">PRKCA</text>
</g>
<!-- PRKCA&#45;&gt;SRC -->
<g id="edge7" class="edge">
<title>PRKCA&#45;&gt;SRC</title>
<path fill="none" stroke="purple" d="M506.41,-147.67C529.01,-136.37 561.55,-120.1 585.97,-107.89"/>
<polygon fill="purple" stroke="purple" points="586.16,-107.8 589.73,-101.53 596.89,-102.43 593.31,-108.69 586.16,-107.8"/>
</g>
<!-- ZYX -->
<g id="node9" class="node">
<title>ZYX</title>
<ellipse fill="none" stroke="black" cx="570.75" cy="-162" rx="29.5" ry="18"/>
<text text-anchor="middle" x="570.75" y="-158.3" font-family="Times,serif" font-size="14.00">ZYX</text>
</g>
<!-- ZYX&#45;&gt;SRC -->
<g id="edge8" class="edge">
<title>ZYX&#45;&gt;SRC</title>
<path fill="none" stroke="green" d="M581.87,-145.12C588.07,-136.26 595.92,-125.04 602.87,-115.12"/>
<polygon fill="green" stroke="green" points="605.8,-117.02 608.67,-106.82 600.07,-113.01 605.8,-117.02"/>
</g>
<!-- AMOTL2 -->
<g id="node11" class="node">
<title>AMOTL2</title>
<ellipse fill="none" stroke="black" cx="669.75" cy="-162" rx="51.19" ry="18"/>
<text text-anchor="middle" x="669.75" y="-158.3" font-family="Times,serif" font-size="14.00">AMOTL2</text>
</g>
<!-- AMOTL2&#45;&gt;SRC -->
<g id="edge10" class="edge">
<title>AMOTL2&#45;&gt;SRC</title>
<path fill="none" stroke="green" d="M657.9,-144.41C651.71,-135.74 644.01,-124.97 637.16,-115.38"/>
<polygon fill="green" stroke="green" points="639.83,-113.09 631.17,-106.99 634.13,-117.16 639.83,-113.09"/>
</g>
<!-- JUN -->
<g id="node13" class="node">
<title>JUN</title>
<ellipse fill="none" stroke="black" cx="768.75" cy="-162" rx="29.8" ry="18"/>
<text text-anchor="middle" x="768.75" y="-158.3" font-family="Times,serif" font-size="14.00">JUN</text>
</g>
<!-- JUN&#45;&gt;SRC -->
<g id="edge12" class="edge">
<title>JUN&#45;&gt;SRC</title>
<path fill="none" stroke="green" d="M745.79,-150.22C720.71,-138.43 680.34,-119.47 652.06,-106.18"/>
<polygon fill="green" stroke="green" points="653.51,-103 642.97,-101.91 650.54,-109.33 653.51,-103"/>
</g>
<!-- EGF -->
<g id="node14" class="node">
<title>EGF</title>
<ellipse fill="none" stroke="black" cx="847.75" cy="-162" rx="31.4" ry="18"/>
<text text-anchor="middle" x="847.75" y="-158.3" font-family="Times,serif" font-size="14.00">EGF</text>
</g>
<!-- EGF&#45;&gt;SRC -->
<g id="edge13" class="edge">
<title>EGF&#45;&gt;SRC</title>
<path fill="none" stroke="green" d="M823.83,-150.25C818.58,-148.06 813.01,-145.85 807.75,-144 756.58,-126 695.95,-109.8 657.67,-100.18"/>
<polygon fill="green" stroke="green" points="658.04,-96.66 647.49,-97.64 656.35,-103.46 658.04,-96.66"/>
</g>
<!-- HGF -->
<g id="node15" class="node">
<title>HGF</title>
<ellipse fill="none" stroke="black" cx="929.75" cy="-162" rx="32.49" ry="18"/>
<text text-anchor="middle" x="929.75" y="-158.3" font-family="Times,serif" font-size="14.00">HGF</text>
</g>
<!-- HGF&#45;&gt;SRC -->
<g id="edge14" class="edge">
<title>HGF&#45;&gt;SRC</title>
<path fill="none" stroke="green" d="M905.15,-150.14C899.5,-147.9 893.48,-145.71 887.75,-144 808.07,-120.23 711.84,-104.16 659.09,-96.39"/>
<polygon fill="green" stroke="green" points="659.54,-92.92 649.14,-94.95 658.53,-99.85 659.54,-92.92"/>
</g>
<!-- HNF4A&#45;&gt;SRC -->
<g id="edge19" class="edge">
<title>HNF4A&#45;&gt;SRC</title>
<path fill="none" stroke="green" d="M927.47,-31.64C922.28,-33.21 916.9,-34.71 911.75,-36 822.96,-58.21 716.4,-75.76 659.63,-83.96"/>
<polygon fill="green" stroke="green" points="659.03,-80.51 649.62,-85.38 660.01,-87.44 659.03,-80.51"/>
</g>
</g>
</svg>
