<?xml version="1.0" encoding="UTF-8" standalone="no"?>
<!DOCTYPE svg PUBLIC "-//W3C//DTD SVG 1.1//EN"
 "http://www.w3.org/Graphics/SVG/1.1/DTD/svg11.dtd">
<!-- Generated by graphviz version 2.43.0 (0)
 -->
<!-- Title: %3 Pages: 1 -->
<svg width="979pt" height="980pt"
 viewBox="0.00 0.00 979.00 980.00" xmlns="http://www.w3.org/2000/svg" xmlns:xlink="http://www.w3.org/1999/xlink">
<g id="graph0" class="graph" transform="scale(1 1) rotate(0) translate(4 976)">
<title>%3</title>
<polygon fill="white" stroke="transparent" points="-4,4 -4,-976 975,-976 975,4 -4,4"/>
<!-- SRC -->
<g id="node1" class="node">
<title>SRC</title>
<ellipse fill="lightyellow" stroke="black" cx="414" cy="-954" rx="30.59" ry="18"/>
<text text-anchor="middle" x="414" y="-950.3" font-family="Times,serif" font-size="14.00">SRC</text>
</g>
<!-- PTK2 -->
<g id="node2" class="node">
<title>PTK2</title>
<ellipse fill="lightyellow" stroke="black" cx="414" cy="-882" rx="36" ry="18"/>
<text text-anchor="middle" x="414" y="-878.3" font-family="Times,serif" font-size="14.00">PTK2</text>
</g>
<!-- SRC&#45;&gt;PTK2 -->
<g id="edge1" class="edge">
<title>SRC&#45;&gt;PTK2</title>
<path fill="none" stroke="green" d="M414,-935.7C414,-927.98 414,-918.71 414,-910.11"/>
<polygon fill="green" stroke="green" points="417.5,-910.1 414,-900.1 410.5,-910.1 417.5,-910.1"/>
</g>
<!-- CDH2 -->
<g id="node3" class="node">
<title>CDH2</title>
<ellipse fill="lightyellow" stroke="black" cx="104" cy="-810" rx="38.19" ry="18"/>
<text text-anchor="middle" x="104" y="-806.3" font-family="Times,serif" font-size="14.00">CDH2</text>
</g>
<!-- SRC&#45;&gt;CDH2 -->
<g id="edge2" class="edge">
<title>SRC&#45;&gt;CDH2</title>
<path fill="none" stroke="red" d="M384.13,-949.94C324.3,-943.31 192.41,-926.12 156,-900 132.98,-883.49 118.55,-853.36 110.88,-832.78"/>
<polygon fill="red" stroke="red" points="104.8,-830.66 114.21,-827.27 114.89,-829.15 105.48,-832.54 104.8,-830.66"/>
<polyline fill="none" stroke="red" points="109.17,-828.02 110.86,-832.72 "/>
</g>
<!-- CDH1 -->
<g id="node4" class="node">
<title>CDH1</title>
<ellipse fill="lightyellow" stroke="black" cx="294" cy="-450" rx="38.19" ry="18"/>
<text text-anchor="middle" x="294" y="-446.3" font-family="Times,serif" font-size="14.00">CDH1</text>
</g>
<!-- SRC&#45;&gt;CDH1 -->
<g id="edge3" class="edge">
<title>SRC&#45;&gt;CDH1</title>
<path fill="none" stroke="red" d="M383.25,-953.63C327.48,-953.49 207.44,-947.18 121,-900 73.52,-874.09 38,-865.09 38,-811 38,-811 38,-811 38,-665 38,-551.72 187.38,-486.63 257.93,-462.21"/>
<polygon fill="red" stroke="red" points="260.3,-456.11 263.54,-465.58 261.64,-466.22 258.41,-456.76 260.3,-456.11"/>
<polyline fill="none" stroke="red" points="262.87,-460.52 258.13,-462.14 "/>
</g>
<!-- CTNNB1 -->
<g id="node9" class="node">
<title>CTNNB1</title>
<ellipse fill="lightgray" stroke="black" cx="331" cy="-378" rx="51.99" ry="18"/>
<text text-anchor="middle" x="331" y="-374.3" font-family="Times,serif" font-size="14.00">CTNNB1</text>
</g>
<!-- SRC&#45;&gt;CTNNB1 -->
<g id="edge8" class="edge">
<title>SRC&#45;&gt;CTNNB1</title>
<path fill="none" stroke="green" d="M383.64,-951.77C307.19,-948.16 109.01,-935.54 55,-900 16.15,-874.44 0,-857.5 0,-811 0,-811 0,-811 0,-521 0,-405.31 172.88,-382.67 268.76,-379.01"/>
<polygon fill="green" stroke="green" points="269.04,-382.51 278.92,-378.69 268.81,-375.51 269.04,-382.51"/>
</g>
<!-- PAK2 -->
<g id="node19" class="node">
<title>PAK2</title>
<ellipse fill="lightgray" stroke="black" cx="782" cy="-882" rx="35.19" ry="18"/>
<text text-anchor="middle" x="782" y="-878.3" font-family="Times,serif" font-size="14.00">PAK2</text>
</g>
<!-- SRC&#45;&gt;PAK2 -->
<g id="edge22" class="edge">
<title>SRC&#45;&gt;PAK2</title>
<path fill="none" stroke="green" d="M443.81,-949.76C500.67,-943.2 628.27,-926.66 733,-900 736.87,-899.02 740.86,-897.86 744.82,-896.63"/>
<polygon fill="green" stroke="green" points="746.11,-899.89 754.52,-893.45 743.93,-893.24 746.11,-899.89"/>
</g>
<!-- CDKN1B -->
<g id="node29" class="node">
<title>CDKN1B</title>
<ellipse fill="lightgray" stroke="black" cx="851" cy="-666" rx="51.99" ry="18"/>
<text text-anchor="middle" x="851" y="-662.3" font-family="Times,serif" font-size="14.00">CDKN1B</text>
</g>
<!-- SRC&#45;&gt;CDKN1B -->
<g id="edge32" class="edge">
<title>SRC&#45;&gt;CDKN1B</title>
<path fill="none" stroke="red" d="M444.28,-951.24C534.89,-945.69 799.29,-927.28 826,-900 882.18,-842.62 866.59,-735.2 856.5,-689.02"/>
<polygon fill="red" stroke="red" points="850.71,-686.03 860.46,-683.84 860.9,-685.79 851.15,-687.99 850.71,-686.03"/>
<polyline fill="none" stroke="red" points="855.37,-683.96 856.46,-688.84 "/>
</g>
<!-- RET -->
<g id="node10" class="node">
<title>RET</title>
<ellipse fill="lightgray" stroke="black" cx="414" cy="-810" rx="30.59" ry="18"/>
<text text-anchor="middle" x="414" y="-806.3" font-family="Times,serif" font-size="14.00">RET</text>
</g>
<!-- PTK2&#45;&gt;RET -->
<g id="edge10" class="edge">
<title>PTK2&#45;&gt;RET</title>
<path fill="none" stroke="green" d="M408.12,-864.05C407.29,-856.23 407.05,-846.75 407.41,-837.98"/>
<polygon fill="green" stroke="green" points="410.92,-838.01 408.14,-827.79 403.93,-837.51 410.92,-838.01"/>
</g>
<!-- CDH2&#45;&gt;CTNNB1 -->
<g id="edge40" class="edge">
<title>CDH2&#45;&gt;CTNNB1</title>
<path fill="none" stroke="green" d="M98.47,-792.16C90.31,-765.79 76,-712.98 76,-667 76,-667 76,-667 76,-521 76,-431.83 196.49,-398.15 271.82,-385.81"/>
<polygon fill="green" stroke="green" points="272.79,-389.2 282.14,-384.21 271.72,-382.29 272.79,-389.2"/>
</g>
<!-- SIGNOR&#45;C21 -->
<g id="node16" class="node">
<title>SIGNOR&#45;C21</title>
<ellipse fill="lightgray" stroke="black" cx="213" cy="-738" rx="71.49" ry="18"/>
<text text-anchor="middle" x="213" y="-734.3" font-family="Times,serif" font-size="14.00">SIGNOR&#45;C21</text>
</g>
<!-- CDH2&#45;&gt;SIGNOR&#45;C21 -->
<g id="edge18" class="edge">
<title>CDH2&#45;&gt;SIGNOR&#45;C21</title>
<path fill="none" stroke="green" d="M125.8,-795C141.14,-785.15 161.97,-771.77 179.42,-760.56"/>
<polygon fill="green" stroke="green" points="181.67,-763.28 188.19,-754.93 177.89,-757.39 181.67,-763.28"/>
</g>
<!-- CDH1&#45;&gt;CTNNB1 -->
<g id="edge38" class="edge">
<title>CDH1&#45;&gt;CTNNB1</title>
<path fill="none" stroke="green" d="M302.77,-432.41C307.08,-424.25 312.38,-414.22 317.22,-405.07"/>
<polygon fill="green" stroke="green" points="320.46,-406.43 322.04,-395.96 314.27,-403.16 320.46,-406.43"/>
</g>
<!-- LRP6 -->
<g id="node12" class="node">
<title>LRP6</title>
<ellipse fill="lightgray" stroke="black" cx="442" cy="-666" rx="36" ry="18"/>
<text text-anchor="middle" x="442" y="-662.3" font-family="Times,serif" font-size="14.00">LRP6</text>
</g>
<!-- CDH1&#45;&gt;LRP6 -->
<g id="edge13" class="edge">
<title>CDH1&#45;&gt;LRP6</title>
<path fill="none" stroke="green" d="M294.61,-468.05C296.68,-500.44 305.72,-571.26 345,-612 361.48,-629.1 384.7,-642.05 404.28,-650.87"/>
<polygon fill="green" stroke="green" points="402.99,-654.12 413.56,-654.87 405.76,-647.69 402.99,-654.12"/>
</g>
<!-- NOTCH1 -->
<g id="node5" class="node">
<title>NOTCH1</title>
<ellipse fill="lightyellow" stroke="black" cx="415" cy="-306" rx="51.99" ry="18"/>
<text text-anchor="middle" x="415" y="-302.3" font-family="Times,serif" font-size="14.00">NOTCH1</text>
</g>
<!-- IL7R -->
<g id="node6" class="node">
<title>IL7R</title>
<ellipse fill="lightgray" stroke="black" cx="473" cy="-234" rx="32.49" ry="18"/>
<text text-anchor="middle" x="473" y="-230.3" font-family="Times,serif" font-size="14.00">IL7R</text>
</g>
<!-- NOTCH1&#45;&gt;IL7R -->
<g id="edge4" class="edge">
<title>NOTCH1&#45;&gt;IL7R</title>
<path fill="none" stroke="green" d="M428.75,-288.41C436.07,-279.57 445.22,-268.53 453.29,-258.79"/>
<polygon fill="green" stroke="green" points="456.07,-260.92 459.75,-250.99 450.68,-256.46 456.07,-260.92"/>
</g>
<!-- JAK1 -->
<g id="node7" class="node">
<title>JAK1</title>
<ellipse fill="lightgray" stroke="black" cx="482" cy="-162" rx="33.29" ry="18"/>
<text text-anchor="middle" x="482" y="-158.3" font-family="Times,serif" font-size="14.00">JAK1</text>
</g>
<!-- IL7R&#45;&gt;JAK1 -->
<g id="edge5" class="edge">
<title>IL7R&#45;&gt;JAK1</title>
<path fill="none" stroke="green" d="M475.22,-215.7C476.22,-207.98 477.41,-198.71 478.51,-190.11"/>
<polygon fill="green" stroke="green" points="482,-190.47 479.8,-180.1 475.05,-189.58 482,-190.47"/>
</g>
<!-- PTPN11 -->
<g id="node8" class="node">
<title>PTPN11</title>
<ellipse fill="lightgray" stroke="black" cx="587" cy="-90" rx="48.99" ry="18"/>
<text text-anchor="middle" x="587" y="-86.3" font-family="Times,serif" font-size="14.00">PTPN11</text>
</g>
<!-- JAK1&#45;&gt;PTPN11 -->
<g id="edge6" class="edge">
<title>JAK1&#45;&gt;PTPN11</title>
<path fill="none" stroke="green" d="M502.25,-147.5C517.37,-137.42 538.32,-123.45 555.61,-111.93"/>
<polygon fill="green" stroke="green" points="557.89,-114.62 564.27,-106.16 554,-108.79 557.89,-114.62"/>
</g>
<!-- PTPN11&#45;&gt;SRC -->
<g id="edge7" class="edge">
<title>PTPN11&#45;&gt;SRC</title>
<path fill="none" stroke="purple" d="M614.67,-104.91C653.38,-126.57 719,-172.25 719,-233 719,-811 719,-811 719,-811 719,-925.31 540.75,-947.83 456.79,-952.1"/>
<polygon fill="purple" stroke="purple" points="456.63,-952.11 450.81,-956.36 444.64,-952.63 450.46,-948.37 456.63,-952.11"/>
</g>
<!-- PTPN11&#45;&gt;PTK2 -->
<g id="edge35" class="edge">
<title>PTPN11&#45;&gt;PTK2</title>
<path fill="none" stroke="red" d="M587,-108.05C587,-134.71 587,-187.89 587,-233 587,-379 587,-379 587,-379 587,-1005.99 609.51,-789.37 577,-828 541.7,-869.95 510.9,-846.3 459,-864 454.91,-865.39 450.63,-866.92 446.42,-868.47"/>
<polygon fill="red" stroke="red" points="444.18,-874.63 440.71,-865.25 442.58,-864.56 446.05,-873.93 444.18,-874.63"/>
<polyline fill="none" stroke="red" points="441.5,-870.29 446.19,-868.55 "/>
</g>
<!-- SIGNOR&#45;PF1 -->
<g id="node23" class="node">
<title>SIGNOR&#45;PF1</title>
<ellipse fill="lightgray" stroke="black" cx="506" cy="-738" rx="71.49" ry="18"/>
<text text-anchor="middle" x="506" y="-734.3" font-family="Times,serif" font-size="14.00">SIGNOR&#45;PF1</text>
</g>
<!-- PTPN11&#45;&gt;SIGNOR&#45;PF1 -->
<g id="edge45" class="edge">
<title>PTPN11&#45;&gt;SIGNOR&#45;PF1</title>
<path fill="none" stroke="green" d="M579.11,-108.07C567.71,-134.33 548,-186.47 548,-233 548,-595 548,-595 548,-595 548,-636.85 531.01,-682.9 518.65,-710.89"/>
<polygon fill="green" stroke="green" points="515.46,-709.44 514.5,-719.99 521.83,-712.34 515.46,-709.44"/>
</g>
<!-- JAK2 -->
<g id="node24" class="node">
<title>JAK2</title>
<ellipse fill="lightgray" stroke="black" cx="587" cy="-18" rx="33.29" ry="18"/>
<text text-anchor="middle" x="587" y="-14.3" font-family="Times,serif" font-size="14.00">JAK2</text>
</g>
<!-- PTPN11&#45;&gt;JAK2 -->
<g id="edge46" class="edge">
<title>PTPN11&#45;&gt;JAK2</title>
<path fill="none" stroke="green" d="M581.12,-72.05C580.29,-64.23 580.05,-54.75 580.41,-45.98"/>
<polygon fill="green" stroke="green" points="583.92,-46.01 581.14,-35.79 576.93,-45.51 583.92,-46.01"/>
</g>
<!-- CTNNB1&#45;&gt;NOTCH1 -->
<g id="edge9" class="edge">
<title>CTNNB1&#45;&gt;NOTCH1</title>
<path fill="none" stroke="green" d="M350.06,-361.12C361.34,-351.72 375.8,-339.67 388.21,-329.33"/>
<polygon fill="green" stroke="green" points="390.57,-331.91 396.01,-322.82 386.09,-326.53 390.57,-331.91"/>
</g>
<!-- RET&#45;&gt;PTK2 -->
<g id="edge36" class="edge">
<title>RET&#45;&gt;PTK2</title>
<path fill="none" stroke="green" d="M419.86,-827.79C420.7,-835.59 420.94,-845.07 420.6,-853.85"/>
<polygon fill="green" stroke="green" points="417.09,-853.83 419.88,-864.05 424.07,-854.33 417.09,-853.83"/>
</g>
<!-- DOK4 -->
<g id="node11" class="node">
<title>DOK4</title>
<ellipse fill="lightgray" stroke="black" cx="341" cy="-738" rx="38.19" ry="18"/>
<text text-anchor="middle" x="341" y="-734.3" font-family="Times,serif" font-size="14.00">DOK4</text>
</g>
<!-- RET&#45;&gt;DOK4 -->
<g id="edge11" class="edge">
<title>RET&#45;&gt;DOK4</title>
<path fill="none" stroke="green" d="M398.52,-794.15C388.66,-784.7 375.69,-772.26 364.57,-761.6"/>
<polygon fill="green" stroke="green" points="366.86,-758.95 357.22,-754.55 362.01,-764 366.86,-758.95"/>
</g>
<!-- MAPK14 -->
<g id="node17" class="node">
<title>MAPK14</title>
<ellipse fill="lightgray" stroke="black" cx="275" cy="-666" rx="51.19" ry="18"/>
<text text-anchor="middle" x="275" y="-662.3" font-family="Times,serif" font-size="14.00">MAPK14</text>
</g>
<!-- RET&#45;&gt;MAPK14 -->
<g id="edge49" class="edge">
<title>RET&#45;&gt;MAPK14</title>
<path fill="none" stroke="green" d="M413.13,-791.96C411.29,-772.45 405.59,-740.54 388,-720 371.79,-701.08 347.35,-688.46 325.33,-680.3"/>
<polygon fill="green" stroke="green" points="326.35,-676.95 315.76,-676.97 324.05,-683.56 326.35,-676.95"/>
</g>
<!-- RET&#45;&gt;SIGNOR&#45;PF1 -->
<g id="edge50" class="edge">
<title>RET&#45;&gt;SIGNOR&#45;PF1</title>
<path fill="none" stroke="green" d="M432.18,-795.17C444.78,-785.58 461.86,-772.59 476.41,-761.51"/>
<polygon fill="green" stroke="green" points="478.79,-764.1 484.63,-755.26 474.56,-758.53 478.79,-764.1"/>
</g>
<!-- DOK4&#45;&gt;SRC -->
<g id="edge12" class="edge">
<title>DOK4&#45;&gt;SRC</title>
<path fill="none" stroke="green" d="M341.08,-756.33C341.83,-786.83 346.25,-851.44 369,-900 374.31,-911.33 382.69,-922.17 390.79,-931.06"/>
<polygon fill="green" stroke="green" points="388.31,-933.54 397.76,-938.34 393.37,-928.7 388.31,-933.54"/>
</g>
<!-- SIGNOR&#45;C110 -->
<g id="node13" class="node">
<title>SIGNOR&#45;C110</title>
<ellipse fill="lightgray" stroke="black" cx="442" cy="-594" rx="77.19" ry="18"/>
<text text-anchor="middle" x="442" y="-590.3" font-family="Times,serif" font-size="14.00">SIGNOR&#45;C110</text>
</g>
<!-- LRP6&#45;&gt;SIGNOR&#45;C110 -->
<g id="edge14" class="edge">
<title>LRP6&#45;&gt;SIGNOR&#45;C110</title>
<path fill="none" stroke="red" d="M436.12,-648.05C435.14,-638.82 434.99,-627.28 435.66,-617.32"/>
<polygon fill="red" stroke="red" points="431.02,-612.85 440.98,-613.69 440.82,-615.69 430.85,-614.84 431.02,-612.85"/>
<polyline fill="none" stroke="red" points="436.09,-612.28 435.67,-617.26 "/>
</g>
<!-- SIGNOR&#45;C110&#45;&gt;CTNNB1 -->
<g id="edge47" class="edge">
<title>SIGNOR&#45;C110&#45;&gt;CTNNB1</title>
<path fill="none" stroke="red" d="M442.6,-575.89C442.64,-557.44 440.92,-527.53 431,-504 413.07,-461.46 376.31,-421.5 352.7,-398.68"/>
<polygon fill="red" stroke="red" points="346.29,-399.47 353.21,-392.24 354.65,-393.62 347.74,-400.85 346.29,-399.47"/>
<polyline fill="none" stroke="red" points="349.03,-395.16 352.64,-398.62 "/>
</g>
<!-- SIGNOR&#45;C110&#45;&gt;LRP6 -->
<g id="edge51" class="edge">
<title>SIGNOR&#45;C110&#45;&gt;LRP6</title>
<path fill="none" stroke="green" d="M447.91,-612.28C448.71,-620.03 448.94,-629.36 448.59,-638.01"/>
<polygon fill="green" stroke="green" points="445.09,-637.83 447.88,-648.05 452.08,-638.33 445.09,-637.83"/>
</g>
<!-- CSNK1D -->
<g id="node14" class="node">
<title>CSNK1D</title>
<ellipse fill="lightgray" stroke="black" cx="370" cy="-522" rx="51.99" ry="18"/>
<text text-anchor="middle" x="370" y="-518.3" font-family="Times,serif" font-size="14.00">CSNK1D</text>
</g>
<!-- SIGNOR&#45;C110&#45;&gt;CSNK1D -->
<g id="edge15" class="edge">
<title>SIGNOR&#45;C110&#45;&gt;CSNK1D</title>
<path fill="none" stroke="green" d="M419.5,-576.76C409.47,-567.97 397.89,-556.93 388.38,-547.14"/>
<polygon fill="green" stroke="green" points="390.68,-544.48 381.26,-539.63 385.6,-549.3 390.68,-544.48"/>
</g>
<!-- CSNK1D&#45;&gt;CDH1 -->
<g id="edge39" class="edge">
<title>CSNK1D&#45;&gt;CDH1</title>
<path fill="none" stroke="red" d="M352.37,-504.76C341.11,-494.39 326.45,-480.88 314.64,-470.01"/>
<polygon fill="red" stroke="red" points="308.1,-470.78 314.87,-463.43 316.34,-464.78 309.57,-472.14 308.1,-470.78"/>
<polyline fill="none" stroke="red" points="310.75,-466.43 314.43,-469.81 "/>
</g>
<!-- CSNK1D&#45;&gt;CTNNB1 -->
<g id="edge48" class="edge">
<title>CSNK1D&#45;&gt;CTNNB1</title>
<path fill="none" stroke="red" d="M365.3,-503.87C358.24,-478.18 344.91,-429.65 337.11,-401.25"/>
<polygon fill="red" stroke="red" points="331.16,-398.48 340.81,-395.83 341.34,-397.76 331.69,-400.41 331.16,-398.48"/>
<polyline fill="none" stroke="red" points="335.72,-396.19 337.05,-401.01 "/>
</g>
<!-- CSNK1D&#45;&gt;LRP6 -->
<g id="edge52" class="edge">
<title>CSNK1D&#45;&gt;LRP6</title>
<path fill="none" stroke="green" d="M361.33,-539.86C352.99,-558.64 343.34,-589.33 356,-612 366.17,-630.22 385.46,-642.95 403.2,-651.36"/>
<polygon fill="green" stroke="green" points="402.26,-654.77 412.83,-655.59 405.08,-648.36 402.26,-654.77"/>
</g>
<!-- CSNK1D&#45;&gt;SIGNOR&#45;C110 -->
<g id="edge54" class="edge">
<title>CSNK1D&#45;&gt;SIGNOR&#45;C110</title>
<path fill="none" stroke="green" d="M391.76,-538.59C401.92,-547.45 413.77,-558.73 423.49,-568.73"/>
<polygon fill="green" stroke="green" points="421.03,-571.21 430.45,-576.05 426.1,-566.39 421.03,-571.21"/>
</g>
<!-- CDK5 -->
<g id="node15" class="node">
<title>CDK5</title>
<ellipse fill="lightgray" stroke="black" cx="653" cy="-450" rx="37.89" ry="18"/>
<text text-anchor="middle" x="653" y="-446.3" font-family="Times,serif" font-size="14.00">CDK5</text>
</g>
<!-- CSNK1D&#45;&gt;CDK5 -->
<g id="edge16" class="edge">
<title>CSNK1D&#45;&gt;CDK5</title>
<path fill="none" stroke="green" d="M411.15,-510.82C464.29,-497.68 556.34,-474.91 610.25,-461.57"/>
<polygon fill="green" stroke="green" points="611.31,-464.92 620.18,-459.12 609.63,-458.12 611.31,-464.92"/>
</g>
<!-- CDK5&#45;&gt;SRC -->
<g id="edge17" class="edge">
<title>CDK5&#45;&gt;SRC</title>
<path fill="none" stroke="green" d="M658.53,-467.84C666.69,-494.21 681,-547.02 681,-593 681,-811 681,-811 681,-811 681,-912.54 528.61,-941.7 454.08,-949.89"/>
<polygon fill="green" stroke="green" points="453.7,-946.42 444.11,-950.92 454.41,-953.38 453.7,-946.42"/>
</g>
<!-- CDK5&#45;&gt;PTK2 -->
<g id="edge37" class="edge">
<title>CDK5&#45;&gt;PTK2</title>
<path fill="none" stroke="green" d="M651.02,-468.02C648.11,-494.64 643,-547.77 643,-593 643,-739 643,-739 643,-739 643,-779.97 648.57,-799.65 619,-828 566.39,-878.44 528.82,-843.07 459,-864 456.23,-864.83 453.38,-865.75 450.52,-866.72"/>
<polygon fill="green" stroke="green" points="449.17,-863.48 440.92,-870.13 451.51,-870.08 449.17,-863.48"/>
</g>
<!-- SIGNOR&#45;C21&#45;&gt;MAPK14 -->
<g id="edge19" class="edge">
<title>SIGNOR&#45;C21&#45;&gt;MAPK14</title>
<path fill="none" stroke="green" d="M228.01,-720.05C235.74,-711.33 245.29,-700.54 253.76,-690.98"/>
<polygon fill="green" stroke="green" points="256.55,-693.11 260.56,-683.31 251.31,-688.47 256.55,-693.11"/>
</g>
<!-- KHSRP -->
<g id="node18" class="node">
<title>KHSRP</title>
<ellipse fill="lightgray" stroke="black" cx="187" cy="-594" rx="44.69" ry="18"/>
<text text-anchor="middle" x="187" y="-590.3" font-family="Times,serif" font-size="14.00">KHSRP</text>
</g>
<!-- MAPK14&#45;&gt;KHSRP -->
<g id="edge20" class="edge">
<title>MAPK14&#45;&gt;KHSRP</title>
<path fill="none" stroke="red" d="M255.03,-649.12C241.8,-638.59 224.38,-624.73 210.48,-613.67"/>
<polygon fill="red" stroke="red" points="203.95,-614.88 210.18,-607.05 211.75,-608.29 205.52,-616.12 203.95,-614.88"/>
<polyline fill="none" stroke="red" points="206.28,-610.34 210.2,-613.45 "/>
</g>
<!-- KHSRP&#45;&gt;SRC -->
<g id="edge21" class="edge">
<title>KHSRP&#45;&gt;SRC</title>
<path fill="none" stroke="green" d="M173.3,-611.21C149.86,-641.01 107.01,-706.04 133,-756 185.33,-856.59 315.16,-916.5 378.33,-940.62"/>
<polygon fill="green" stroke="green" points="377.29,-943.96 387.88,-944.18 379.73,-937.4 377.29,-943.96"/>
</g>
<!-- VIM -->
<g id="node20" class="node">
<title>VIM</title>
<ellipse fill="lightyellow" stroke="black" cx="777" cy="-522" rx="29.8" ry="18"/>
<text text-anchor="middle" x="777" y="-518.3" font-family="Times,serif" font-size="14.00">VIM</text>
</g>
<!-- PAK2&#45;&gt;VIM -->
<g id="edge23" class="edge">
<title>PAK2&#45;&gt;VIM</title>
<path fill="none" stroke="red" d="M779.83,-863.98C776.62,-837.37 771,-784.25 771,-739 771,-739 771,-739 771,-665 771,-622.67 773.69,-573.3 775.47,-545.34"/>
<polygon fill="red" stroke="red" points="770.76,-540.72 780.74,-541.36 780.61,-543.36 770.63,-542.71 770.76,-540.72"/>
<polyline fill="none" stroke="red" points="775.81,-540.04 775.49,-545.03 "/>
</g>
<!-- MAP4K4 -->
<g id="node21" class="node">
<title>MAP4K4</title>
<ellipse fill="lightyellow" stroke="black" cx="519" cy="-882" rx="51.19" ry="18"/>
<text text-anchor="middle" x="519" y="-878.3" font-family="Times,serif" font-size="14.00">MAP4K4</text>
</g>
<!-- MAP3K1 -->
<g id="node22" class="node">
<title>MAP3K1</title>
<ellipse fill="lightgray" stroke="black" cx="517" cy="-810" rx="51.19" ry="18"/>
<text text-anchor="middle" x="517" y="-806.3" font-family="Times,serif" font-size="14.00">MAP3K1</text>
</g>
<!-- MAP4K4&#45;&gt;MAP3K1 -->
<g id="edge24" class="edge">
<title>MAP4K4&#45;&gt;MAP3K1</title>
<path fill="none" stroke="green" d="M518.51,-863.7C518.29,-855.98 518.02,-846.71 517.77,-838.11"/>
<polygon fill="green" stroke="green" points="521.27,-838 517.49,-828.1 514.28,-838.2 521.27,-838"/>
</g>
<!-- MAP3K1&#45;&gt;SIGNOR&#45;PF1 -->
<g id="edge25" class="edge">
<title>MAP3K1&#45;&gt;SIGNOR&#45;PF1</title>
<path fill="none" stroke="red" d="M514.28,-791.7C512.83,-782.46 511.03,-770.98 509.47,-761.11"/>
<polygon fill="red" stroke="red" points="503.9,-757.87 513.78,-756.32 514.09,-758.29 504.21,-759.84 503.9,-757.87"/>
<polyline fill="none" stroke="red" points="508.69,-756.1 509.46,-761.04 "/>
</g>
<!-- SIGNOR&#45;PF1&#45;&gt;LRP6 -->
<g id="edge53" class="edge">
<title>SIGNOR&#45;PF1&#45;&gt;LRP6</title>
<path fill="none" stroke="green" d="M490.51,-720.05C482.33,-711.12 472.18,-700.01 463.28,-690.28"/>
<polygon fill="green" stroke="green" points="465.8,-687.85 456.47,-682.83 460.64,-692.57 465.8,-687.85"/>
</g>
<!-- SIGNOR&#45;PF1&#45;&gt;SIGNOR&#45;C110 -->
<g id="edge55" class="edge">
<title>SIGNOR&#45;PF1&#45;&gt;SIGNOR&#45;C110</title>
<path fill="none" stroke="red" d="M504.83,-719.79C503.02,-701.24 498.44,-671.25 487,-648 481.13,-636.06 471.97,-624.57 463.44,-615.36"/>
<polygon fill="red" stroke="red" points="456.89,-615.73 464.15,-608.85 465.53,-610.3 458.27,-617.18 456.89,-615.73"/>
<polyline fill="none" stroke="red" points="459.83,-611.56 463.27,-615.19 "/>
</g>
<!-- SIGNOR&#45;PF1&#45;&gt;MAPK14 -->
<g id="edge56" class="edge">
<title>SIGNOR&#45;PF1&#45;&gt;MAPK14</title>
<path fill="none" stroke="red" d="M462.28,-723.75C420.68,-711.14 358.49,-692.3 317.34,-679.83"/>
<polygon fill="red" stroke="red" points="311.94,-683.42 314.84,-673.85 316.76,-674.43 313.86,-684 311.94,-683.42"/>
<polyline fill="none" stroke="red" points="312.43,-678.34 317.22,-679.79 "/>
</g>
<!-- SIGNOR&#45;PF1&#45;&gt;JAK2 -->
<g id="edge26" class="edge">
<title>SIGNOR&#45;PF1&#45;&gt;JAK2</title>
<path fill="none" stroke="red" d="M577.83,-737.12C681.07,-735.76 864.25,-727.11 912,-684 942.16,-656.76 933,-635.64 933,-595 933,-595 933,-595 933,-521 933,-424.7 967,-403.3 967,-307 967,-307 967,-307 967,-161 967,-88.09 718.44,-40.23 623.37,-24.59"/>
<polygon fill="red" stroke="red" points="618.6,-28.88 620.21,-19.01 622.19,-19.33 620.58,-29.2 618.6,-28.88"/>
<polyline fill="none" stroke="red" points="618.42,-23.79 623.35,-24.59 "/>
</g>
<!-- SIGNOR&#45;PF1&#45;&gt;CDKN1B -->
<g id="edge57" class="edge">
<title>SIGNOR&#45;PF1&#45;&gt;CDKN1B</title>
<path fill="none" stroke="green" d="M559.91,-726.06C624.67,-712.92 732.65,-691.01 797.31,-677.89"/>
<polygon fill="green" stroke="green" points="798.2,-681.28 807.31,-675.87 796.81,-674.42 798.2,-681.28"/>
</g>
<!-- JAK2&#45;&gt;PTPN11 -->
<g id="edge27" class="edge">
<title>JAK2&#45;&gt;PTPN11</title>
<path fill="none" stroke="green" d="M592.86,-35.79C593.7,-43.59 593.94,-53.07 593.6,-61.85"/>
<polygon fill="green" stroke="green" points="590.09,-61.83 592.88,-72.05 597.07,-62.33 590.09,-61.83"/>
</g>
<!-- LATS1 -->
<g id="node25" class="node">
<title>LATS1</title>
<ellipse fill="lightyellow" stroke="black" cx="865" cy="-522" rx="40.09" ry="18"/>
<text text-anchor="middle" x="865" y="-518.3" font-family="Times,serif" font-size="14.00">LATS1</text>
</g>
<!-- VEPH1 -->
<g id="node26" class="node">
<title>VEPH1</title>
<ellipse fill="lightgray" stroke="black" cx="861" cy="-450" rx="44.39" ry="18"/>
<text text-anchor="middle" x="861" y="-446.3" font-family="Times,serif" font-size="14.00">VEPH1</text>
</g>
<!-- LATS1&#45;&gt;VEPH1 -->
<g id="edge28" class="edge">
<title>LATS1&#45;&gt;VEPH1</title>
<path fill="none" stroke="red" d="M858.15,-504.05C856.65,-494.82 855.83,-483.28 855.94,-473.32"/>
<polygon fill="red" stroke="red" points="851.05,-469.14 861.04,-469.41 860.99,-471.41 850.99,-471.14 851.05,-469.14"/>
<polyline fill="none" stroke="red" points="856.07,-468.28 855.94,-473.27 "/>
</g>
<!-- VEPH1&#45;&gt;LATS1 -->
<g id="edge42" class="edge">
<title>VEPH1&#45;&gt;LATS1</title>
<path fill="none" stroke="red" d="M867.82,-467.79C869.36,-477.13 870.18,-488.88 870.06,-498.96"/>
<polygon fill="red" stroke="red" points="874.94,-503.2 864.94,-502.91 865,-500.91 875,-501.2 874.94,-503.2"/>
<polyline fill="none" stroke="red" points="869.91,-504.05 870.06,-499.06 "/>
</g>
<!-- LATS2 -->
<g id="node27" class="node">
<title>LATS2</title>
<ellipse fill="lightyellow" stroke="black" cx="861" cy="-378" rx="40.09" ry="18"/>
<text text-anchor="middle" x="861" y="-374.3" font-family="Times,serif" font-size="14.00">LATS2</text>
</g>
<!-- VEPH1&#45;&gt;LATS2 -->
<g id="edge29" class="edge">
<title>VEPH1&#45;&gt;LATS2</title>
<path fill="none" stroke="red" d="M855.12,-432.05C854.14,-422.82 853.99,-411.28 854.66,-401.32"/>
<polygon fill="red" stroke="red" points="850.02,-396.85 859.98,-397.69 859.82,-399.69 849.85,-398.84 850.02,-396.85"/>
<polyline fill="none" stroke="red" points="855.09,-396.28 854.67,-401.26 "/>
</g>
<!-- LATS2&#45;&gt;VEPH1 -->
<g id="edge43" class="edge">
<title>LATS2&#45;&gt;VEPH1</title>
<path fill="none" stroke="red" d="M866.91,-396.28C867.87,-405.56 868.01,-417.12 867.32,-427.04"/>
<polygon fill="red" stroke="red" points="871.95,-431.49 861.98,-430.62 862.16,-428.63 872.12,-429.5 871.95,-431.49"/>
<polyline fill="none" stroke="red" points="866.88,-432.05 867.31,-427.07 "/>
</g>
<!-- AMOTL2 -->
<g id="node28" class="node">
<title>AMOTL2</title>
<ellipse fill="lightgray" stroke="black" cx="861" cy="-306" rx="51.19" ry="18"/>
<text text-anchor="middle" x="861" y="-302.3" font-family="Times,serif" font-size="14.00">AMOTL2</text>
</g>
<!-- LATS2&#45;&gt;AMOTL2 -->
<g id="edge30" class="edge">
<title>LATS2&#45;&gt;AMOTL2</title>
<path fill="none" stroke="red" d="M855.12,-360.05C854.14,-350.82 853.99,-339.28 854.66,-329.32"/>
<polygon fill="red" stroke="red" points="850.02,-324.85 859.98,-325.69 859.82,-327.69 849.85,-326.84 850.02,-324.85"/>
<polyline fill="none" stroke="red" points="855.09,-324.28 854.67,-329.26 "/>
</g>
<!-- AMOTL2&#45;&gt;SRC -->
<g id="edge31" class="edge">
<title>AMOTL2&#45;&gt;SRC</title>
<path fill="none" stroke="green" d="M879.17,-323.27C889.31,-333.11 901.56,-346.36 910,-360 950.27,-425.07 971,-444.48 971,-521 971,-811 971,-811 971,-811 971,-877.4 912.68,-875.41 851,-900 779.31,-928.58 548.74,-945.05 454.61,-950.73"/>
<polygon fill="green" stroke="green" points="454.12,-947.26 444.35,-951.34 454.54,-954.24 454.12,-947.26"/>
</g>
<!-- AMOTL2&#45;&gt;LATS2 -->
<g id="edge44" class="edge">
<title>AMOTL2&#45;&gt;LATS2</title>
<path fill="none" stroke="green" d="M866.91,-324.28C867.71,-332.03 867.94,-341.36 867.59,-350.01"/>
<polygon fill="green" stroke="green" points="864.09,-349.83 866.88,-360.05 871.08,-350.33 864.09,-349.83"/>
</g>
<!-- CDK1 -->
<g id="node30" class="node">
<title>CDK1</title>
<ellipse fill="lightgray" stroke="black" cx="851" cy="-594" rx="37.89" ry="18"/>
<text text-anchor="middle" x="851" y="-590.3" font-family="Times,serif" font-size="14.00">CDK1</text>
</g>
<!-- CDKN1B&#45;&gt;CDK1 -->
<g id="edge33" class="edge">
<title>CDKN1B&#45;&gt;CDK1</title>
<path fill="none" stroke="red" d="M845.12,-648.05C844.13,-638.68 843.98,-626.93 844.69,-616.87"/>
<polygon fill="red" stroke="red" points="840.07,-612.35 850.03,-613.22 849.86,-615.22 839.89,-614.34 840.07,-612.35"/>
<polyline fill="none" stroke="red" points="845.14,-611.79 844.7,-616.77 "/>
</g>
<!-- CDK1&#45;&gt;VIM -->
<g id="edge41" class="edge">
<title>CDK1&#45;&gt;VIM</title>
<path fill="none" stroke="red" d="M834.58,-577.46C823.25,-566.75 808.16,-552.48 796.27,-541.23"/>
<polygon fill="red" stroke="red" points="789.66,-541.86 796.53,-534.59 797.98,-535.97 791.11,-543.23 789.66,-541.86"/>
<polyline fill="none" stroke="red" points="792.37,-537.54 796,-540.97 "/>
</g>
<!-- CDK1&#45;&gt;LATS1 -->
<g id="edge34" class="edge">
<title>CDK1&#45;&gt;LATS1</title>
<path fill="none" stroke="green" d="M854.39,-576.05C855.93,-568.35 857.79,-559.03 859.53,-550.36"/>
<polygon fill="green" stroke="green" points="863.02,-550.77 861.54,-540.28 856.15,-549.39 863.02,-550.77"/>
</g>
<!-- CDK1&#45;&gt;CDKN1B -->
<g id="edge58" class="edge">
<title>CDK1&#45;&gt;CDKN1B</title>
<path fill="none" stroke="red" d="M856.86,-611.79C857.87,-621.13 858.02,-632.88 857.32,-642.96"/>
<polygon fill="red" stroke="red" points="861.95,-647.49 851.98,-646.63 852.16,-644.63 862.12,-645.5 861.95,-647.49"/>
<polyline fill="none" stroke="red" points="856.88,-648.05 857.31,-643.07 "/>
</g>
</g>
</svg>
