<?xml version="1.0" encoding="UTF-8" standalone="no"?>
<!DOCTYPE svg PUBLIC "-//W3C//DTD SVG 1.1//EN"
 "http://www.w3.org/Graphics/SVG/1.1/DTD/svg11.dtd">
<!-- Generated by graphviz version 2.43.0 (0)
 -->
<!-- Title: %3 Pages: 1 -->
<svg width="595pt" height="260pt"
 viewBox="0.00 0.00 595.29 260.00" xmlns="http://www.w3.org/2000/svg" xmlns:xlink="http://www.w3.org/1999/xlink">
<g id="graph0" class="graph" transform="scale(1 1) rotate(0) translate(4 256)">
<title>%3</title>
<polygon fill="white" stroke="transparent" points="-4,4 -4,-256 591.29,-256 591.29,4 -4,4"/>
<!-- SRC -->
<g id="node1" class="node">
<title>SRC</title>
<ellipse fill="lightyellow" stroke="black" cx="153" cy="-162" rx="30.59" ry="18"/>
<text text-anchor="middle" x="153" y="-158.3" font-family="Times,serif" font-size="14.00">SRC</text>
</g>
<!-- PTK2 -->
<g id="node2" class="node">
<title>PTK2</title>
<ellipse fill="lightgray" stroke="black" cx="179" cy="-18" rx="36" ry="18"/>
<text text-anchor="middle" x="179" y="-14.3" font-family="Times,serif" font-size="14.00">PTK2</text>
</g>
<!-- SRC&#45;&gt;PTK2 -->
<g id="edge1" class="edge">
<title>SRC&#45;&gt;PTK2</title>
<path fill="none" stroke="green" d="M154,-143.79C155.27,-125.76 157.93,-96.67 163,-72 164.78,-63.3 167.36,-53.97 169.93,-45.61"/>
<polygon fill="green" stroke="green" points="173.3,-46.57 173.01,-35.98 166.63,-44.44 173.3,-46.57"/>
</g>
<!-- CDH2 -->
<g id="node4" class="node">
<title>CDH2</title>
<ellipse fill="lightyellow" stroke="black" cx="69" cy="-90" rx="38.19" ry="18"/>
<text text-anchor="middle" x="69" y="-86.3" font-family="Times,serif" font-size="14.00">CDH2</text>
</g>
<!-- SRC&#45;&gt;CDH2 -->
<g id="edge3" class="edge">
<title>SRC&#45;&gt;CDH2</title>
<path fill="none" stroke="red" d="M136,-146.83C123.03,-136.03 105.05,-121.05 90.99,-109.33"/>
<polygon fill="red" stroke="red" points="84.7,-110.59 91.1,-102.91 92.64,-104.19 86.24,-111.88 84.7,-110.59"/>
<polyline fill="none" stroke="red" points="87.13,-106.11 90.97,-109.31 "/>
</g>
<!-- PTK2B -->
<g id="node5" class="node">
<title>PTK2B</title>
<ellipse fill="lightyellow" stroke="black" cx="214" cy="-90" rx="42.49" ry="18"/>
<text text-anchor="middle" x="214" y="-86.3" font-family="Times,serif" font-size="14.00">PTK2B</text>
</g>
<!-- SRC&#45;&gt;PTK2B -->
<g id="edge4" class="edge">
<title>SRC&#45;&gt;PTK2B</title>
<path fill="none" stroke="green" d="M166.53,-145.46C174.29,-136.57 184.19,-125.21 192.94,-115.16"/>
<polygon fill="green" stroke="green" points="195.71,-117.31 199.65,-107.47 190.44,-112.71 195.71,-117.31"/>
</g>
<!-- CDH1 -->
<g id="node3" class="node">
<title>CDH1</title>
<ellipse fill="lightyellow" stroke="black" cx="153" cy="-234" rx="38.19" ry="18"/>
<text text-anchor="middle" x="153" y="-230.3" font-family="Times,serif" font-size="14.00">CDH1</text>
</g>
<!-- CDH1&#45;&gt;SRC -->
<g id="edge2" class="edge">
<title>CDH1&#45;&gt;SRC</title>
<path fill="none" stroke="green" d="M153,-215.7C153,-207.98 153,-198.71 153,-190.11"/>
<polygon fill="green" stroke="green" points="156.5,-190.1 153,-180.1 149.5,-190.1 156.5,-190.1"/>
</g>
<!-- PTK2B&#45;&gt;PTK2 -->
<g id="edge6" class="edge">
<title>PTK2B&#45;&gt;PTK2</title>
<path fill="none" stroke="green" d="M205.52,-72.05C201.44,-63.89 196.45,-53.91 191.91,-44.82"/>
<polygon fill="green" stroke="green" points="194.99,-43.17 187.39,-35.79 188.73,-46.3 194.99,-43.17"/>
</g>
<!-- NOTCH1 -->
<g id="node6" class="node">
<title>NOTCH1</title>
<ellipse fill="lightyellow" stroke="black" cx="52" cy="-162" rx="51.99" ry="18"/>
<text text-anchor="middle" x="52" y="-158.3" font-family="Times,serif" font-size="14.00">NOTCH1</text>
</g>
<!-- NOTCH1&#45;&gt;CDH2 -->
<g id="edge5" class="edge">
<title>NOTCH1&#45;&gt;CDH2</title>
<path fill="none" stroke="green" d="M56.11,-144.05C58,-136.26 60.3,-126.82 62.42,-118.08"/>
<polygon fill="green" stroke="green" points="65.84,-118.82 64.8,-108.28 59.04,-117.17 65.84,-118.82"/>
</g>
<!-- VIM -->
<g id="node7" class="node">
<title>VIM</title>
<ellipse fill="lightyellow" stroke="black" cx="239" cy="-234" rx="29.8" ry="18"/>
<text text-anchor="middle" x="239" y="-230.3" font-family="Times,serif" font-size="14.00">VIM</text>
</g>
<!-- MAP4K4 -->
<g id="node8" class="node">
<title>MAP4K4</title>
<ellipse fill="lightyellow" stroke="black" cx="338" cy="-234" rx="51.19" ry="18"/>
<text text-anchor="middle" x="338" y="-230.3" font-family="Times,serif" font-size="14.00">MAP4K4</text>
</g>
<!-- LATS1 -->
<g id="node9" class="node">
<title>LATS1</title>
<ellipse fill="lightyellow" stroke="black" cx="448" cy="-234" rx="40.09" ry="18"/>
<text text-anchor="middle" x="448" y="-230.3" font-family="Times,serif" font-size="14.00">LATS1</text>
</g>
<!-- LATS2 -->
<g id="node10" class="node">
<title>LATS2</title>
<ellipse fill="lightyellow" stroke="black" cx="547" cy="-234" rx="40.09" ry="18"/>
<text text-anchor="middle" x="547" y="-230.3" font-family="Times,serif" font-size="14.00">LATS2</text>
</g>
</g>
</svg>
